<svg width="17" height="17" viewBox="0 0 17 17" fill="none" xmlns="http://www.w3.org/2000/svg">
<rect y="2.40271" width="1.91289" height="14.5371" fill="#E61A27"/>
<rect width="1.91278" height="15.9703" transform="matrix(0.00373647 0.999993 -0.99999 0.00458561 15.9701 15.014)" fill="#E61A27"/>
<rect x="14.2734" y="7.12091" width="1.91289" height="9.81894" fill="#E61A27"/>
<rect width="1.91277" height="8.86335" transform="matrix(-0.00582397 0.999983 -0.999974 -0.00714749 10.1404 2.46606)" fill="#E61A27"/>
<rect x="11.8037" y="0.64447" width="4.3741" height="3.82556" fill="#E61A27"/>
<path d="M12.8712 3.64447L13.4952 2.24447H13.8152L14.4412 3.64447H14.1012L13.5892 2.40847H13.7172L13.2032 3.64447H12.8712ZM13.1832 3.34447L13.2692 3.09847H13.9892L14.0772 3.34447H13.1832ZM14.5644 3.64447V2.56847H14.8764V3.64447H14.5644ZM14.7204 2.41847C14.6631 2.41847 14.6164 2.4018 14.5804 2.36847C14.5444 2.33514 14.5264 2.2938 14.5264 2.24447C14.5264 2.19514 14.5444 2.1538 14.5804 2.12047C14.6164 2.08714 14.6631 2.07047 14.7204 2.07047C14.7777 2.07047 14.8244 2.08647 14.8604 2.11847C14.8964 2.14914 14.9144 2.18914 14.9144 2.23847C14.9144 2.29047 14.8964 2.3338 14.8604 2.36847C14.8257 2.4018 14.7791 2.41847 14.7204 2.41847Z" fill="white"/>
<path d="M5.79898 7.71802L6.56265 8.5898V13.1667H5.79898V7.71802Z" fill="#E61A27"/>
<path d="M5.03531 7.91261L5.79897 7.71802V13.1667H5.03531V7.91261Z" fill="#E61A27"/>
<path d="M7.21719 9.78851L7.98086 10.3515V13.1667H7.21719V9.78851Z" fill="#E61A27"/>
<path d="M7.98087 10.3515L8.74453 9.78851V13.1667H7.98087V10.3515Z" fill="#E61A27"/>
<path d="M9.45364 9.13471L11.0901 7.66357V13.1667H9.45364V9.13471Z" fill="#E61A27"/>
<path d="M5.79895 6.51935L5.79895 7.33665L3.91704 8.37189L5.79895 6.51935Z" fill="black"/>
<path d="M8.0354 8.69879L7.98086 10.1154L5.79896 7.33661L5.79896 6.51931L8.0354 8.69879Z" fill="black"/>
<path d="M10.981 6.68277L11.3142 7.07551L7.97609 10.1108L7.97609 9.08018L7.97609 8.69877L10.981 6.68277Z" fill="black"/>
<path d="M11.7719 6.21242L11.4963 7.33147L10.6682 6.53054L11.7719 6.21242Z" fill="black"/>
</svg>
