<svg width="16" height="16" viewBox="0 0 16 16" fill="none" xmlns="http://www.w3.org/2000/svg">
<path d="M3.85689 3.07202L5.29438 4.43286V11.5773H3.85689V3.07202Z" fill="#E61A27"/>
<path d="M2.41939 3.37578L3.85688 3.07202V11.5773H2.41939V3.37578Z" fill="#E61A27"/>
<path d="M6.5265 6.30408L7.96399 7.18295V11.5773H6.5265V6.30408Z" fill="#E61A27"/>
<path d="M7.96399 7.18295L9.40148 6.30408V11.5773H7.96399V7.18295Z" fill="#E61A27"/>
<path d="M10.7363 5.28335L13.8166 2.98694V11.5772H10.7363V5.28335Z" fill="#E61A27"/>
<path d="M3.85687 1.20093L3.85687 2.47671L0.314449 4.09271L3.85687 1.20093Z" fill="black"/>
<path d="M8.06665 4.60293L7.96398 6.8143L3.85688 2.47661L3.85688 1.20082L8.06665 4.60293Z" fill="black"/>
<path d="M13.6113 1.45606L14.2386 2.06912L7.95501 6.80719L7.95501 5.19836L7.95501 4.603L13.6113 1.45606Z" fill="black"/>
<path d="M15.1 0.721823L14.5813 2.46864L13.0225 1.2184L15.1 0.721823Z" fill="black"/>
</svg>
