<svg width="66" height="64" viewBox="0 0 66 64" fill="none" xmlns="http://www.w3.org/2000/svg">
<rect y="5.61084" width="7.65156" height="58.1486" fill="#E61A27"/>
<rect width="7.65112" height="63.8811" transform="matrix(0.00373646 0.999993 -0.99999 0.00458561 63.8804 56.056)" fill="#E61A27"/>
<rect x="57.0935" y="24.4836" width="7.65156" height="39.2758" fill="#E61A27"/>
<rect width="7.65109" height="35.4534" transform="matrix(-0.00582397 0.999983 -0.999974 -0.00714748 40.5618 5.8642)" fill="#E61A27"/>
<rect x="48" width="17.4964" height="15.3022" fill="#E61A27"/>
<path d="M52.0091 11L54.8171 4.7H56.2571L59.0741 11H57.5441L55.2401 5.438H55.8161L53.5031 11H52.0091ZM53.4131 9.65L53.8001 8.543H57.0401L57.4361 9.65H53.4131ZM59.6287 11V6.158H61.0327V11H59.6287ZM60.3307 5.483C60.0727 5.483 59.8627 5.408 59.7007 5.258C59.5387 5.108 59.4577 4.922 59.4577 4.7C59.4577 4.478 59.5387 4.292 59.7007 4.142C59.8627 3.992 60.0727 3.917 60.3307 3.917C60.5887 3.917 60.7987 3.989 60.9607 4.133C61.1227 4.271 61.2037 4.451 61.2037 4.673C61.2037 4.907 61.1227 5.102 60.9607 5.258C60.8047 5.408 60.5947 5.483 60.3307 5.483Z" fill="white"/>
<path d="M24.3739 28.4844L26.9926 29.121L22.7959 43.0718L19.8948 43.1452L24.3739 28.4844Z" fill="#E61A27"/>
<rect width="2.77109" height="16.0458" rx="1.38555" transform="matrix(0.884078 -0.467339 0.440843 0.897584 23.821 28.3585)" fill="#E61A27"/>
<rect width="2.76991" height="16.0842" rx="1.38495" transform="matrix(0.890774 0.454446 -0.428323 0.903626 36.7592 26.6543)" fill="#E61A27"/>
<path d="M36.3052 29.7917L38.6799 28.0491L42.997 43.0883L40.2597 43.0883L36.3052 29.7917Z" fill="#E61A27"/>
<path d="M25.8731 32.3517L25.8731 36.3675L17.5176 42.144L16 40.2004L25.8731 32.3517Z" fill="black"/>
<path d="M31.5149 36.3675L31.5149 39.8095L25.8732 36.3675L25.8732 32.3518L31.5149 36.3675Z" fill="black"/>
<path d="M41.4397 28.8119L43.2212 31.11L31.5149 39.8096L31.3672 38.1943L31.2195 36.579L41.4397 28.8119Z" fill="black"/>
<path d="M45.8822 26.7586L43.6697 32.3928L40.0016 27.6147L45.8822 26.7586Z" fill="black"/>
<path d="M25.8731 32.3517L25.8731 36.3675L17.5176 42.144L16 40.2004L25.8731 32.3517Z" fill="black"/>
<path d="M31.5149 36.3675L31.5149 39.8095L25.8732 36.3675L25.8732 32.3518L31.5149 36.3675Z" fill="black"/>
<path d="M41.4397 28.8119L43.2212 31.11L31.5149 39.8096L31.3672 38.1943L31.2195 36.579L41.4397 28.8119Z" fill="black"/>
<path d="M45.8822 26.7586L43.6697 32.3928L40.0016 27.6147L45.8822 26.7586Z" fill="black"/>
</svg>
