<svg width="293" height="92" viewBox="0 0 293 92" fill="none" xmlns="http://www.w3.org/2000/svg">
<rect y="9.89026" width="10.0404" height="81.7714" fill="#E61A27"/>
<rect width="10.7594" height="83.825" transform="matrix(0.00348658 0.999994 -0.999988 0.00491427 83.824 80.8287)" fill="#E61A27"/>
<rect x="74.9182" y="36.4301" width="10.0404" height="55.2316" fill="#E61A27"/>
<rect width="10.7593" height="46.5222" transform="matrix(-0.00543448 0.999985 -0.999971 -0.00765973 53.2253 10.2466)" fill="#E61A27"/>
<rect x="61.9552" width="22.9588" height="21.5188" fill="#E61A27"/>
<path d="M66.7436 15L70.4876 6.6H72.4076L76.1636 15H74.1236L71.0516 7.584H71.8196L68.7356 15H66.7436ZM68.6156 13.2L69.1316 11.724H73.4516L73.9796 13.2H68.6156ZM76.9031 15V8.544H78.7751V15H76.9031ZM77.8391 7.644C77.4951 7.644 77.2151 7.544 76.9991 7.344C76.7831 7.144 76.6751 6.896 76.6751 6.6C76.6751 6.304 76.7831 6.056 76.9991 5.856C77.2151 5.656 77.4951 5.556 77.8391 5.556C78.1831 5.556 78.4631 5.652 78.6791 5.844C78.8951 6.028 79.0031 6.268 79.0031 6.564C79.0031 6.876 78.8951 7.136 78.6791 7.344C78.4711 7.544 78.1911 7.644 77.8391 7.644Z" fill="white"/>
<path d="M99.6246 58V41.2H102.841L109.993 53.056H108.289L115.321 41.2H118.513L118.561 58H114.913L114.889 46.792H115.561L109.945 56.224H108.193L102.457 46.792H103.273V58H99.6246ZM130.203 58V55.48L129.963 54.928V50.416C129.963 49.616 129.715 48.992 129.219 48.544C128.739 48.096 127.995 47.872 126.987 47.872C126.299 47.872 125.619 47.984 124.947 48.208C124.291 48.416 123.731 48.704 123.267 49.072L121.923 46.456C122.627 45.96 123.475 45.576 124.467 45.304C125.459 45.032 126.467 44.896 127.491 44.896C129.459 44.896 130.987 45.36 132.075 46.288C133.163 47.216 133.707 48.664 133.707 50.632V58H130.203ZM126.267 58.192C125.259 58.192 124.395 58.024 123.675 57.688C122.955 57.336 122.403 56.864 122.019 56.272C121.635 55.68 121.443 55.016 121.443 54.28C121.443 53.512 121.627 52.84 121.995 52.264C122.379 51.688 122.979 51.24 123.795 50.92C124.611 50.584 125.675 50.416 126.987 50.416H130.419V52.6H127.395C126.515 52.6 125.907 52.744 125.571 53.032C125.251 53.32 125.091 53.68 125.091 54.112C125.091 54.592 125.275 54.976 125.643 55.264C126.027 55.536 126.547 55.672 127.203 55.672C127.827 55.672 128.387 55.528 128.883 55.24C129.379 54.936 129.739 54.496 129.963 53.92L130.539 55.648C130.267 56.48 129.771 57.112 129.051 57.544C128.331 57.976 127.403 58.192 126.267 58.192ZM137.095 58V45.088H140.671V48.736L140.167 47.68C140.551 46.768 141.167 46.08 142.015 45.616C142.863 45.136 143.895 44.896 145.111 44.896V48.352C144.951 48.336 144.807 48.328 144.679 48.328C144.551 48.312 144.415 48.304 144.271 48.304C143.247 48.304 142.415 48.6 141.775 49.192C141.151 49.768 140.839 50.672 140.839 51.904V58H137.095ZM150.457 55.36L150.553 50.8L156.577 45.088H161.041L155.257 50.968L153.313 52.552L150.457 55.36ZM147.361 58V40.192H151.105V58H147.361ZM156.985 58L152.617 52.576L154.969 49.672L161.521 58H156.985ZM169.073 58.192C167.601 58.192 166.305 57.904 165.185 57.328C164.081 56.752 163.225 55.968 162.617 54.976C162.009 53.968 161.705 52.824 161.705 51.544C161.705 50.248 162.001 49.104 162.593 48.112C163.201 47.104 164.025 46.32 165.065 45.76C166.105 45.184 167.281 44.896 168.593 44.896C169.857 44.896 170.993 45.168 172.001 45.712C173.025 46.24 173.833 47.008 174.425 48.016C175.017 49.008 175.313 50.2 175.313 51.592C175.313 51.736 175.305 51.904 175.289 52.096C175.273 52.272 175.257 52.44 175.241 52.6H164.753V50.416H173.273L171.833 51.064C171.833 50.392 171.697 49.808 171.425 49.312C171.153 48.816 170.777 48.432 170.297 48.16C169.817 47.872 169.257 47.728 168.617 47.728C167.977 47.728 167.409 47.872 166.913 48.16C166.433 48.432 166.057 48.824 165.785 49.336C165.513 49.832 165.377 50.424 165.377 51.112V51.688C165.377 52.392 165.529 53.016 165.833 53.56C166.153 54.088 166.593 54.496 167.153 54.784C167.729 55.056 168.401 55.192 169.169 55.192C169.857 55.192 170.457 55.088 170.969 54.88C171.497 54.672 171.977 54.36 172.409 53.944L174.401 56.104C173.809 56.776 173.065 57.296 172.169 57.664C171.273 58.016 170.241 58.192 169.073 58.192ZM183.086 58.192C181.566 58.192 180.382 57.808 179.534 57.04C178.686 56.256 178.262 55.096 178.262 53.56V42.232H182.006V53.512C182.006 54.056 182.15 54.48 182.438 54.784C182.726 55.072 183.118 55.216 183.614 55.216C184.206 55.216 184.71 55.056 185.126 54.736L186.134 57.376C185.75 57.648 185.286 57.856 184.742 58C184.214 58.128 183.662 58.192 183.086 58.192ZM176.27 48.256V45.376H185.222V48.256H176.27ZM192.58 58.192C191.476 58.192 190.412 58.064 189.388 57.808C188.38 57.536 187.58 57.2 186.988 56.8L188.236 54.112C188.828 54.48 189.524 54.784 190.324 55.024C191.14 55.248 191.94 55.36 192.724 55.36C193.588 55.36 194.196 55.256 194.548 55.048C194.916 54.84 195.1 54.552 195.1 54.184C195.1 53.88 194.956 53.656 194.668 53.512C194.396 53.352 194.028 53.232 193.564 53.152C193.1 53.072 192.588 52.992 192.028 52.912C191.484 52.832 190.932 52.728 190.372 52.6C189.812 52.456 189.3 52.248 188.836 51.976C188.372 51.704 187.996 51.336 187.708 50.872C187.436 50.408 187.3 49.808 187.3 49.072C187.3 48.256 187.532 47.536 187.996 46.912C188.476 46.288 189.164 45.8 190.06 45.448C190.956 45.08 192.028 44.896 193.276 44.896C194.156 44.896 195.052 44.992 195.964 45.184C196.876 45.376 197.636 45.656 198.244 46.024L196.996 48.688C196.372 48.32 195.74 48.072 195.1 47.944C194.476 47.8 193.868 47.728 193.276 47.728C192.444 47.728 191.836 47.84 191.452 48.064C191.068 48.288 190.876 48.576 190.876 48.928C190.876 49.248 191.012 49.488 191.284 49.648C191.572 49.808 191.948 49.936 192.412 50.032C192.876 50.128 193.38 50.216 193.924 50.296C194.484 50.36 195.044 50.464 195.604 50.608C196.164 50.752 196.668 50.96 197.116 51.232C197.58 51.488 197.956 51.848 198.244 52.312C198.532 52.76 198.676 53.352 198.676 54.088C198.676 54.888 198.436 55.6 197.956 56.224C197.476 56.832 196.78 57.312 195.868 57.664C194.972 58.016 193.876 58.192 192.58 58.192ZM206.266 58.192C204.746 58.192 203.562 57.808 202.714 57.04C201.866 56.256 201.442 55.096 201.442 53.56V42.232H205.186V53.512C205.186 54.056 205.33 54.48 205.618 54.784C205.906 55.072 206.298 55.216 206.794 55.216C207.386 55.216 207.89 55.056 208.306 54.736L209.314 57.376C208.93 57.648 208.466 57.856 207.922 58C207.394 58.128 206.842 58.192 206.266 58.192ZM199.45 48.256V45.376H208.402V48.256H199.45ZM219.335 58V55.48L219.095 54.928V50.416C219.095 49.616 218.847 48.992 218.351 48.544C217.871 48.096 217.127 47.872 216.119 47.872C215.431 47.872 214.751 47.984 214.079 48.208C213.423 48.416 212.863 48.704 212.399 49.072L211.055 46.456C211.759 45.96 212.607 45.576 213.599 45.304C214.591 45.032 215.599 44.896 216.623 44.896C218.591 44.896 220.119 45.36 221.207 46.288C222.295 47.216 222.839 48.664 222.839 50.632V58H219.335ZM215.399 58.192C214.391 58.192 213.527 58.024 212.807 57.688C212.087 57.336 211.535 56.864 211.151 56.272C210.767 55.68 210.575 55.016 210.575 54.28C210.575 53.512 210.759 52.84 211.127 52.264C211.511 51.688 212.111 51.24 212.927 50.92C213.743 50.584 214.807 50.416 216.119 50.416H219.551V52.6H216.527C215.647 52.6 215.039 52.744 214.703 53.032C214.383 53.32 214.223 53.68 214.223 54.112C214.223 54.592 214.407 54.976 214.775 55.264C215.159 55.536 215.679 55.672 216.335 55.672C216.959 55.672 217.519 55.528 218.015 55.24C218.511 54.936 218.871 54.496 219.095 53.92L219.671 55.648C219.399 56.48 218.903 57.112 218.183 57.544C217.463 57.976 216.535 58.192 215.399 58.192ZM231.508 58.192C229.988 58.192 228.804 57.808 227.956 57.04C227.108 56.256 226.684 55.096 226.684 53.56V42.232H230.428V53.512C230.428 54.056 230.572 54.48 230.86 54.784C231.148 55.072 231.54 55.216 232.036 55.216C232.628 55.216 233.132 55.056 233.548 54.736L234.556 57.376C234.172 57.648 233.708 57.856 233.164 58C232.636 58.128 232.084 58.192 231.508 58.192ZM224.692 48.256V45.376H233.644V48.256H224.692ZM242.106 58.192C241.034 58.192 240.074 57.984 239.226 57.568C238.394 57.152 237.746 56.52 237.282 55.672C236.818 54.808 236.586 53.712 236.586 52.384V45.088H240.33V51.832C240.33 52.904 240.554 53.696 241.002 54.208C241.466 54.704 242.114 54.952 242.946 54.952C243.522 54.952 244.034 54.832 244.482 54.592C244.93 54.336 245.282 53.952 245.538 53.44C245.794 52.912 245.922 52.256 245.922 51.472V45.088H249.666V58H246.114V54.448L246.762 55.48C246.33 56.376 245.69 57.056 244.842 57.52C244.01 57.968 243.098 58.192 242.106 58.192ZM257.478 58.192C256.374 58.192 255.31 58.064 254.286 57.808C253.278 57.536 252.478 57.2 251.886 56.8L253.134 54.112C253.726 54.48 254.422 54.784 255.222 55.024C256.038 55.248 256.838 55.36 257.622 55.36C258.486 55.36 259.094 55.256 259.446 55.048C259.814 54.84 259.998 54.552 259.998 54.184C259.998 53.88 259.854 53.656 259.566 53.512C259.294 53.352 258.926 53.232 258.462 53.152C257.998 53.072 257.486 52.992 256.926 52.912C256.382 52.832 255.83 52.728 255.27 52.6C254.71 52.456 254.198 52.248 253.734 51.976C253.27 51.704 252.894 51.336 252.606 50.872C252.334 50.408 252.198 49.808 252.198 49.072C252.198 48.256 252.43 47.536 252.894 46.912C253.374 46.288 254.062 45.8 254.958 45.448C255.854 45.08 256.926 44.896 258.174 44.896C259.054 44.896 259.95 44.992 260.862 45.184C261.774 45.376 262.534 45.656 263.142 46.024L261.894 48.688C261.27 48.32 260.638 48.072 259.998 47.944C259.374 47.8 258.766 47.728 258.174 47.728C257.342 47.728 256.734 47.84 256.35 48.064C255.966 48.288 255.774 48.576 255.774 48.928C255.774 49.248 255.91 49.488 256.182 49.648C256.47 49.808 256.846 49.936 257.31 50.032C257.774 50.128 258.278 50.216 258.822 50.296C259.382 50.36 259.942 50.464 260.502 50.608C261.062 50.752 261.566 50.96 262.014 51.232C262.478 51.488 262.854 51.848 263.142 52.312C263.43 52.76 263.574 53.352 263.574 54.088C263.574 54.888 263.334 55.6 262.854 56.224C262.374 56.832 261.678 57.312 260.766 57.664C259.87 58.016 258.774 58.192 257.478 58.192ZM267.3 58.192C266.66 58.192 266.108 57.976 265.644 57.544C265.196 57.096 264.972 56.528 264.972 55.84C264.972 55.152 265.196 54.6 265.644 54.184C266.108 53.752 266.66 53.536 267.3 53.536C267.956 53.536 268.508 53.752 268.956 54.184C269.404 54.6 269.628 55.152 269.628 55.84C269.628 56.528 269.404 57.096 268.956 57.544C268.508 57.976 267.956 58.192 267.3 58.192ZM272.165 58V45.088H275.909V58H272.165ZM274.037 43.288C273.349 43.288 272.789 43.088 272.357 42.688C271.925 42.288 271.709 41.792 271.709 41.2C271.709 40.608 271.925 40.112 272.357 39.712C272.789 39.312 273.349 39.112 274.037 39.112C274.725 39.112 275.285 39.304 275.717 39.688C276.149 40.056 276.365 40.536 276.365 41.128C276.365 41.752 276.149 42.272 275.717 42.688C275.301 43.088 274.741 43.288 274.037 43.288ZM287.232 44.896C288.256 44.896 289.168 45.104 289.968 45.52C290.784 45.92 291.424 46.544 291.888 47.392C292.352 48.224 292.584 49.296 292.584 50.608V58H288.84V51.184C288.84 50.144 288.608 49.376 288.144 48.88C287.696 48.384 287.056 48.136 286.224 48.136C285.632 48.136 285.096 48.264 284.616 48.52C284.152 48.76 283.784 49.136 283.512 49.648C283.256 50.16 283.128 50.816 283.128 51.616V58H279.384V45.088H282.96V48.664L282.288 47.584C282.752 46.72 283.416 46.056 284.28 45.592C285.144 45.128 286.128 44.896 287.232 44.896Z" fill="black"/>
<path d="M100.4 77L105.392 65.8H107.952L112.96 77H110.24L106.144 67.112H107.168L103.056 77H100.4ZM102.896 74.6L103.584 72.632H109.344L110.048 74.6H102.896ZM114.122 77V65.8H116.714V77H114.122ZM123.903 77V65.8H126.047L130.815 73.704H129.679L134.367 65.8H136.495L136.527 77H134.095L134.079 69.528H134.527L130.783 75.816H129.615L125.791 69.528H126.335V77H123.903ZM144.288 77V75.32L144.128 74.952V71.944C144.128 71.4107 143.963 70.9947 143.632 70.696C143.312 70.3973 142.816 70.248 142.144 70.248C141.685 70.248 141.232 70.3227 140.784 70.472C140.347 70.6107 139.973 70.8027 139.664 71.048L138.768 69.304C139.237 68.9733 139.803 68.7173 140.464 68.536C141.125 68.3547 141.797 68.264 142.48 68.264C143.792 68.264 144.811 68.5733 145.536 69.192C146.261 69.8107 146.624 70.776 146.624 72.088V77H144.288ZM141.664 77.128C140.992 77.128 140.416 77.016 139.936 76.792C139.456 76.5573 139.088 76.2427 138.832 75.848C138.576 75.4533 138.448 75.0107 138.448 74.52C138.448 74.008 138.571 73.56 138.816 73.176C139.072 72.792 139.472 72.4933 140.016 72.28C140.56 72.056 141.269 71.944 142.144 71.944H144.432V73.4H142.416C141.829 73.4 141.424 73.496 141.2 73.688C140.987 73.88 140.88 74.12 140.88 74.408C140.88 74.728 141.003 74.984 141.248 75.176C141.504 75.3573 141.851 75.448 142.288 75.448C142.704 75.448 143.077 75.352 143.408 75.16C143.739 74.9573 143.979 74.664 144.128 74.28L144.512 75.432C144.331 75.9867 144 76.408 143.52 76.696C143.04 76.984 142.421 77.128 141.664 77.128ZM148.883 77V68.392H151.267V70.824L150.931 70.12C151.187 69.512 151.598 69.0533 152.163 68.744C152.728 68.424 153.416 68.264 154.227 68.264V70.568C154.12 70.5573 154.024 70.552 153.939 70.552C153.854 70.5413 153.763 70.536 153.667 70.536C152.984 70.536 152.43 70.7333 152.003 71.128C151.587 71.512 151.379 72.1147 151.379 72.936V77H148.883ZM157.791 75.24L157.855 72.2L161.871 68.392H164.847L160.991 72.312L159.695 73.368L157.791 75.24ZM155.727 77V65.128H158.223V77H155.727ZM162.143 77L159.231 73.384L160.799 71.448L165.167 77H162.143ZM170.202 77.128C169.221 77.128 168.357 76.936 167.61 76.552C166.874 76.168 166.303 75.6453 165.898 74.984C165.493 74.312 165.29 73.5493 165.29 72.696C165.29 71.832 165.487 71.0693 165.882 70.408C166.287 69.736 166.837 69.2133 167.53 68.84C168.223 68.456 169.007 68.264 169.882 68.264C170.725 68.264 171.482 68.4453 172.154 68.808C172.837 69.16 173.375 69.672 173.77 70.344C174.165 71.0053 174.362 71.8 174.362 72.728C174.362 72.824 174.357 72.936 174.346 73.064C174.335 73.1813 174.325 73.2933 174.314 73.4H167.322V71.944H173.002L172.042 72.376C172.042 71.928 171.951 71.5387 171.77 71.208C171.589 70.8773 171.338 70.6213 171.018 70.44C170.698 70.248 170.325 70.152 169.898 70.152C169.471 70.152 169.093 70.248 168.762 70.44C168.442 70.6213 168.191 70.8827 168.01 71.224C167.829 71.5547 167.738 71.9493 167.738 72.408V72.792C167.738 73.2613 167.839 73.6773 168.042 74.04C168.255 74.392 168.549 74.664 168.922 74.856C169.306 75.0373 169.754 75.128 170.266 75.128C170.725 75.128 171.125 75.0587 171.466 74.92C171.818 74.7813 172.138 74.5733 172.426 74.296L173.754 75.736C173.359 76.184 172.863 76.5307 172.266 76.776C171.669 77.0107 170.981 77.128 170.202 77.128ZM179.544 77.128C178.53 77.128 177.741 76.872 177.176 76.36C176.61 75.8373 176.328 75.064 176.328 74.04V66.488H178.824V74.008C178.824 74.3707 178.92 74.6533 179.112 74.856C179.304 75.048 179.565 75.144 179.896 75.144C180.29 75.144 180.626 75.0373 180.904 74.824L181.576 76.584C181.32 76.7653 181.01 76.904 180.648 77C180.296 77.0853 179.928 77.128 179.544 77.128ZM175 70.504V68.584H180.968V70.504H175ZM186.212 77L191.204 65.8H193.764L198.772 77H196.052L191.956 67.112H192.98L188.868 77H186.212ZM188.708 74.6L189.396 72.632H195.156L195.86 74.6H188.708ZM204.99 68.264C205.673 68.264 206.281 68.4027 206.814 68.68C207.358 68.9467 207.785 69.3627 208.094 69.928C208.403 70.4827 208.558 71.1973 208.558 72.072V77H206.062V72.456C206.062 71.7627 205.907 71.2507 205.598 70.92C205.299 70.5893 204.873 70.424 204.318 70.424C203.923 70.424 203.566 70.5093 203.246 70.68C202.937 70.84 202.691 71.0907 202.51 71.432C202.339 71.7733 202.254 72.2107 202.254 72.744V77H199.758V68.392H202.142V70.776L201.694 70.056C202.003 69.48 202.446 69.0373 203.022 68.728C203.598 68.4187 204.254 68.264 204.99 68.264ZM216.101 77V75.32L215.941 74.952V71.944C215.941 71.4107 215.775 70.9947 215.445 70.696C215.125 70.3973 214.629 70.248 213.957 70.248C213.498 70.248 213.045 70.3227 212.597 70.472C212.159 70.6107 211.786 70.8027 211.477 71.048L210.581 69.304C211.05 68.9733 211.615 68.7173 212.277 68.536C212.938 68.3547 213.61 68.264 214.293 68.264C215.605 68.264 216.623 68.5733 217.349 69.192C218.074 69.8107 218.437 70.776 218.437 72.088V77H216.101ZM213.477 77.128C212.805 77.128 212.229 77.016 211.749 76.792C211.269 76.5573 210.901 76.2427 210.645 75.848C210.389 75.4533 210.261 75.0107 210.261 74.52C210.261 74.008 210.383 73.56 210.629 73.176C210.885 72.792 211.285 72.4933 211.829 72.28C212.373 72.056 213.082 71.944 213.957 71.944H216.245V73.4H214.229C213.642 73.4 213.237 73.496 213.013 73.688C212.799 73.88 212.693 74.12 212.693 74.408C212.693 74.728 212.815 74.984 213.061 75.176C213.317 75.3573 213.663 75.448 214.101 75.448C214.517 75.448 214.89 75.352 215.221 75.16C215.551 74.9573 215.791 74.664 215.941 74.28L216.325 75.432C216.143 75.9867 215.813 76.408 215.333 76.696C214.853 76.984 214.234 77.128 213.477 77.128ZM220.696 77V65.128H223.192V77H220.696ZM226.596 80.232C226.148 80.232 225.705 80.1627 225.268 80.024C224.831 79.8853 224.473 79.6933 224.196 79.448L225.108 77.672C225.3 77.8427 225.519 77.976 225.764 78.072C226.02 78.168 226.271 78.216 226.516 78.216C226.868 78.216 227.145 78.1307 227.348 77.96C227.561 77.8 227.753 77.528 227.924 77.144L228.372 76.088L228.564 75.816L231.652 68.392H234.052L230.164 77.528C229.887 78.2213 229.567 78.7653 229.204 79.16C228.852 79.5547 228.457 79.832 228.02 79.992C227.593 80.152 227.119 80.232 226.596 80.232ZM228.068 77.336L224.228 68.392H226.804L229.78 75.592L228.068 77.336ZM238.825 77.128C237.812 77.128 237.022 76.872 236.457 76.36C235.892 75.8373 235.609 75.064 235.609 74.04V66.488H238.105V74.008C238.105 74.3707 238.201 74.6533 238.393 74.856C238.585 75.048 238.846 75.144 239.177 75.144C239.572 75.144 239.908 75.0373 240.185 74.824L240.857 76.584C240.601 76.7653 240.292 76.904 239.929 77C239.577 77.0853 239.209 77.128 238.825 77.128ZM234.281 70.504V68.584H240.249V70.504H234.281ZM242.258 77V68.392H244.754V77H242.258ZM243.506 67.192C243.047 67.192 242.674 67.0587 242.386 66.792C242.098 66.5253 241.954 66.1947 241.954 65.8C241.954 65.4053 242.098 65.0747 242.386 64.808C242.674 64.5413 243.047 64.408 243.506 64.408C243.965 64.408 244.338 64.536 244.626 64.792C244.914 65.0373 245.058 65.3573 245.058 65.752C245.058 66.168 244.914 66.5147 244.626 66.792C244.349 67.0587 243.975 67.192 243.506 67.192ZM251.231 77.128C250.303 77.128 249.476 76.9413 248.751 76.568C248.025 76.184 247.455 75.656 247.039 74.984C246.633 74.312 246.431 73.5493 246.431 72.696C246.431 71.832 246.633 71.0693 247.039 70.408C247.455 69.736 248.025 69.2133 248.751 68.84C249.476 68.456 250.303 68.264 251.231 68.264C252.137 68.264 252.927 68.456 253.599 68.84C254.271 69.2133 254.767 69.752 255.087 70.456L253.151 71.496C252.927 71.0907 252.644 70.792 252.303 70.6C251.972 70.408 251.609 70.312 251.215 70.312C250.788 70.312 250.404 70.408 250.063 70.6C249.721 70.792 249.449 71.064 249.247 71.416C249.055 71.768 248.959 72.1947 248.959 72.696C248.959 73.1973 249.055 73.624 249.247 73.976C249.449 74.328 249.721 74.6 250.063 74.792C250.404 74.984 250.788 75.08 251.215 75.08C251.609 75.08 251.972 74.9893 252.303 74.808C252.644 74.616 252.927 74.312 253.151 73.896L255.087 74.952C254.767 75.6453 254.271 76.184 253.599 76.568C252.927 76.9413 252.137 77.128 251.231 77.128ZM259.42 77.128C258.684 77.128 257.974 77.0427 257.292 76.872C256.62 76.6907 256.086 76.4667 255.692 76.2L256.524 74.408C256.918 74.6533 257.382 74.856 257.916 75.016C258.46 75.1653 258.993 75.24 259.516 75.24C260.092 75.24 260.497 75.1707 260.732 75.032C260.977 74.8933 261.1 74.7013 261.1 74.456C261.1 74.2533 261.004 74.104 260.812 74.008C260.63 73.9013 260.385 73.8213 260.076 73.768C259.766 73.7147 259.425 73.6613 259.052 73.608C258.689 73.5547 258.321 73.4853 257.948 73.4C257.574 73.304 257.233 73.1653 256.924 72.984C256.614 72.8027 256.364 72.5573 256.172 72.248C255.99 71.9387 255.9 71.5387 255.9 71.048C255.9 70.504 256.054 70.024 256.364 69.608C256.684 69.192 257.142 68.8667 257.74 68.632C258.337 68.3867 259.052 68.264 259.884 68.264C260.47 68.264 261.068 68.328 261.676 68.456C262.284 68.584 262.79 68.7707 263.196 69.016L262.364 70.792C261.948 70.5467 261.526 70.3813 261.1 70.296C260.684 70.2 260.278 70.152 259.884 70.152C259.329 70.152 258.924 70.2267 258.668 70.376C258.412 70.5253 258.284 70.7173 258.284 70.952C258.284 71.1653 258.374 71.3253 258.556 71.432C258.748 71.5387 258.998 71.624 259.308 71.688C259.617 71.752 259.953 71.8107 260.316 71.864C260.689 71.9067 261.062 71.976 261.436 72.072C261.809 72.168 262.145 72.3067 262.444 72.488C262.753 72.6587 263.004 72.8987 263.196 73.208C263.388 73.5067 263.484 73.9013 263.484 74.392C263.484 74.9253 263.324 75.4 263.004 75.816C262.684 76.2213 262.22 76.5413 261.612 76.776C261.014 77.0107 260.284 77.128 259.42 77.128Z" fill="black"/>
<path d="M29.8425 42.8169L34.4842 43.9266L27.0457 68.2447L21.9035 68.3727L29.8425 42.8169Z" fill="#E61A27"/>
<rect width="4.89408" height="28.0621" rx="2.44704" transform="matrix(0.887266 -0.461259 0.446793 0.894637 28.8626 42.5974)" fill="#E61A27"/>
<rect width="4.89294" height="28.1241" rx="2.44647" transform="matrix(0.89381 0.448445 -0.434183 0.900824 51.7954 39.6268)" fill="#E61A27"/>
<path d="M50.9906 45.0957L55.1997 42.0582L62.8518 68.2735L58 68.2735L50.9906 45.0957Z" fill="#E61A27"/>
<path d="M32.5 49.5582L32.5 56.5582L17.6899 66.6274L15 63.2396L32.5 49.5582Z" fill="black"/>
<path d="M42.5 56.5583L42.5 62.5582L32.5001 56.5583L32.5 49.5584L42.5 56.5583Z" fill="black"/>
<path d="M60.0916 43.3878L63.2492 47.3937L42.5 62.5583L42.2382 59.7426L41.9763 56.9269L60.0916 43.3878Z" fill="black"/>
<path d="M67.9658 39.8087L64.0442 49.6298L57.5426 41.3009L67.9658 39.8087Z" fill="black"/>
<path d="M32.5 49.5582L32.5 56.5582L17.6899 66.6274L15 63.2396L32.5 49.5582Z" fill="black"/>
<path d="M42.5 56.5583L42.5 62.5582L32.5001 56.5583L32.5 49.5584L42.5 56.5583Z" fill="black"/>
<path d="M60.0916 43.3878L63.2492 47.3937L42.5 62.5583L42.2382 59.7426L41.9763 56.9269L60.0916 43.3878Z" fill="black"/>
<path d="M67.9658 39.8087L64.0442 49.6298L57.5426 41.3009L67.9658 39.8087Z" fill="black"/>
</svg>
